<svg width="50" height="50" viewBox="0 0 50 50" fill="none" xmlns="http://www.w3.org/2000/svg">
<circle cx="25" cy="25" r="24.5" fill="white" stroke="#EE5B26"/>
<path fill-rule="evenodd" clip-rule="evenodd" d="M20.465 14.0668C21.638 14.0121 22.012 14 25 14C27.988 14 28.362 14.0132 29.534 14.0668C30.706 14.1204 31.506 14.3097 32.206 14.5839C32.939 14.8642 33.604 15.3024 34.154 15.8691C34.714 16.4247 35.146 17.0967 35.422 17.8395C35.694 18.5478 35.88 19.3574 35.934 20.5414C35.988 21.7305 36 22.109 36 25.1318C36 28.1556 35.987 28.5341 35.934 29.7211C35.881 30.9051 35.694 31.7147 35.422 32.4231C35.146 33.166 34.7133 33.8391 34.154 34.3955C33.604 34.9622 32.939 35.3993 32.206 35.6787C31.506 35.9539 30.706 36.1421 29.536 36.1968C28.362 36.2514 27.988 36.2636 25 36.2636C22.012 36.2636 21.638 36.2504 20.465 36.1968C19.295 36.1432 18.495 35.9539 17.795 35.6787C17.0609 35.3993 16.3958 34.9614 15.846 34.3955C15.2864 33.8396 14.8533 33.1668 14.577 32.4241C14.306 31.7157 14.12 30.9062 14.066 29.7221C14.012 28.5331 14 28.1546 14 25.1318C14 22.108 14.013 21.7295 14.066 20.5435C14.119 19.3574 14.306 18.5478 14.577 17.8395C14.8537 17.0967 15.2871 16.424 15.847 15.8681C16.396 15.3019 17.0605 14.8637 17.794 14.5839C18.494 14.3097 19.294 14.1214 20.464 14.0668H20.465ZM29.445 16.0705C28.285 16.0169 27.937 16.0057 25 16.0057C22.063 16.0057 21.715 16.0169 20.555 16.0705C19.482 16.1201 18.9 16.3012 18.512 16.4541C17.999 16.6564 17.632 16.8963 17.247 17.2859C16.882 17.6452 16.6012 18.0826 16.425 18.5661C16.274 18.9587 16.095 19.5477 16.046 20.6335C15.993 21.8074 15.982 22.1596 15.982 25.1318C15.982 28.104 15.993 28.4561 16.046 29.63C16.095 30.7159 16.274 31.3049 16.425 31.6975C16.601 32.1802 16.882 32.6184 17.247 32.9777C17.602 33.3471 18.035 33.6314 18.512 33.8095C18.9 33.9623 19.482 34.1435 20.555 34.1931C21.715 34.2467 22.062 34.2578 25 34.2578C27.938 34.2578 28.285 34.2467 29.445 34.1931C30.518 34.1435 31.1 33.9623 31.488 33.8095C32.001 33.6071 32.368 33.3673 32.753 32.9777C33.118 32.6184 33.399 32.1802 33.575 31.6975C33.726 31.3049 33.905 30.7159 33.954 29.63C34.007 28.4561 34.018 28.104 34.018 25.1318C34.018 22.1596 34.007 21.8074 33.954 20.6335C33.905 19.5477 33.726 18.9587 33.575 18.5661C33.375 18.0469 33.138 17.6755 32.753 17.2859C32.3979 16.9166 31.9657 16.6324 31.488 16.4541C31.1 16.3012 30.518 16.1201 29.445 16.0705ZM23.595 28.5634C24.3797 28.894 25.2534 28.9386 26.0669 28.6896C26.8805 28.4407 27.5834 27.9136 28.0556 27.1985C28.5278 26.4834 28.7401 25.6245 28.656 24.7686C28.572 23.9127 28.197 23.1129 27.595 22.5057C27.2112 22.1176 26.7472 21.8204 26.2363 21.6355C25.7255 21.4507 25.1804 21.3828 24.6405 21.4367C24.1006 21.4906 23.5792 21.6649 23.1138 21.9472C22.6485 22.2295 22.2507 22.6127 21.9493 23.0692C21.6479 23.5257 21.4502 24.0442 21.3705 24.5873C21.2908 25.1304 21.3312 25.6846 21.4885 26.2101C21.6459 26.7355 21.9165 27.2191 22.2807 27.626C22.645 28.033 23.0938 28.3531 23.595 28.5634ZM21.002 21.0859C21.527 20.5546 22.1503 20.1331 22.8363 19.8456C23.5223 19.558 24.2575 19.41 25 19.41C25.7425 19.41 26.4777 19.558 27.1637 19.8456C27.8497 20.1331 28.473 20.5546 28.998 21.0859C29.523 21.6172 29.9395 22.248 30.2236 22.9422C30.5078 23.6364 30.654 24.3804 30.654 25.1318C30.654 25.8832 30.5078 26.6272 30.2236 27.3214C29.9395 28.0156 29.523 28.6464 28.998 29.1777C27.9377 30.2507 26.4995 30.8536 25 30.8536C23.5005 30.8536 22.0623 30.2507 21.002 29.1777C19.9417 28.1047 19.346 26.6493 19.346 25.1318C19.346 23.6143 19.9417 22.1589 21.002 21.0859ZM31.908 20.2621C32.0381 20.1379 32.1423 19.9886 32.2143 19.8229C32.2863 19.6572 32.3248 19.4786 32.3274 19.2976C32.33 19.1167 32.2967 18.937 32.2295 18.7693C32.1622 18.6016 32.0624 18.4492 31.936 18.3212C31.8095 18.1932 31.6589 18.0922 31.4932 18.0242C31.3275 17.9561 31.1499 17.9224 30.9711 17.9251C30.7922 17.9277 30.6157 17.9666 30.452 18.0395C30.2883 18.1124 30.1407 18.2178 30.018 18.3495C29.7793 18.6056 29.6486 18.9457 29.6537 19.2976C29.6588 19.6496 29.7992 19.9857 30.0452 20.2347C30.2911 20.4836 30.6233 20.6257 30.9711 20.6308C31.3189 20.6359 31.655 20.5037 31.908 20.2621Z" fill="#EE5B26"/>
</svg>
