<svg width="50" height="50" viewBox="0 0 50 50" fill="none" xmlns="http://www.w3.org/2000/svg">
<circle cx="25" cy="25" r="24.5" fill="white" stroke="#EE5B26"/>
<path d="M36 16.0102C35.0424 16.6937 33.9821 17.2166 32.86 17.5585C32.2577 16.8577 31.4573 16.361 30.567 16.1356C29.6767 15.9102 28.7395 15.9669 27.8821 16.298C27.0247 16.6292 26.2884 17.2189 25.773 17.9873C25.2575 18.7557 24.9877 19.6658 25 20.5944V21.6064C23.2426 21.6525 21.5013 21.2581 19.931 20.4583C18.3607 19.6584 17.0103 18.478 16 17.0222C16 17.0222 12 26.13 21 30.1779C18.9405 31.5926 16.4872 32.302 14 32.2019C23 37.2618 34 32.2019 34 20.5641C33.9991 20.2822 33.9723 20.001 33.92 19.7241C34.9406 18.7056 35.6608 17.4196 36 16.0102V16.0102Z" stroke="#EE5B26" stroke-width="2" stroke-linecap="round" stroke-linejoin="round"/>
</svg>
